<svg aria-hidden="true" style="position: absolute; width: 0; height: 0; overflow: hidden;" version="1.1" xmlns="http://www.w3.org/2000/svg" xmlns:xlink="http://www.w3.org/1999/xlink">
<defs>
<symbol id="icon-Shopp-bag" viewBox="0 0 32 32">
<path d="M6.934 1.867c0.252-0.336 0.647-0.533 1.067-0.533h16c0.42 0 0.815 0.198 1.067 0.533l4 5.333c0.173 0.231 0.267 0.511 0.267 0.8v18.667c0 1.061-0.421 2.078-1.172 2.828s-1.767 1.172-2.828 1.172h-18.667c-1.061 0-2.078-0.421-2.828-1.172s-1.172-1.767-1.172-2.828v-18.667c0-0.288 0.094-0.569 0.267-0.8l4-5.333zM8.667 4l-3.333 4.444v18.222c0 0.354 0.14 0.693 0.391 0.943s0.589 0.391 0.943 0.391h18.667c0.354 0 0.693-0.14 0.943-0.391s0.391-0.589 0.391-0.943v-18.222l-3.333-4.444h-14.667z"></path>
<path d="M2.667 8c0-0.736 0.597-1.333 1.333-1.333h24c0.736 0 1.333 0.597 1.333 1.333s-0.597 1.333-1.333 1.333h-24c-0.736 0-1.333-0.597-1.333-1.333z"></path>
<path d="M10.667 12c0.736 0 1.333 0.597 1.333 1.333 0 1.061 0.421 2.078 1.172 2.828s1.768 1.172 2.828 1.172c1.061 0 2.078-0.421 2.828-1.172s1.172-1.768 1.172-2.828c0-0.736 0.597-1.333 1.333-1.333s1.333 0.597 1.333 1.333c0 1.768-0.702 3.464-1.953 4.714s-2.946 1.953-4.714 1.953-3.464-0.702-4.714-1.953c-1.25-1.25-1.953-2.946-1.953-4.714 0-0.736 0.597-1.333 1.333-1.333z"></path>
</symbol>
<symbol id="icon-Favour" viewBox="0 0 32 32">
<path d="M22.6 2.598c-1.147 0-2.283 0.226-3.343 0.665s-2.023 1.083-2.834 1.894l-0.423 0.423-0.423-0.423c-1.638-1.638-3.86-2.558-6.177-2.558s-4.538 0.92-6.177 2.558c-1.638 1.638-2.558 3.86-2.558 6.177s0.92 4.538 2.558 6.177l11.787 11.787c0.547 0.547 1.433 0.547 1.98 0l11.787-11.787c0.811-0.811 1.455-1.774 1.894-2.834s0.665-2.196 0.665-3.343-0.226-2.283-0.665-3.343c-0.439-1.060-1.082-2.022-1.894-2.833s-1.774-1.455-2.834-1.894c-1.060-0.439-2.196-0.665-3.343-0.665z"></path>
</symbol>
<symbol id="icon-Home" viewBox="0 0 32 32">
<path d="M15.182 1.614c0.481-0.374 1.156-0.374 1.637 0l12 9.333c0.325 0.253 0.515 0.641 0.515 1.052v14.667c0 1.061-0.421 2.078-1.172 2.828s-1.767 1.172-2.828 1.172h-18.667c-1.061 0-2.078-0.421-2.828-1.172s-1.172-1.767-1.172-2.828v-14.667c0-0.411 0.19-0.8 0.515-1.052l12-9.333zM5.334 12.652v14.014c0 0.354 0.14 0.693 0.391 0.943s0.589 0.391 0.943 0.391h18.667c0.354 0 0.693-0.14 0.943-0.391s0.391-0.589 0.391-0.943v-14.014l-10.667-8.296-10.667 8.296z"></path>
<path d="M10.667 16c0-0.736 0.597-1.333 1.333-1.333h8c0.736 0 1.333 0.597 1.333 1.333v13.333c0 0.736-0.597 1.333-1.333 1.333s-1.333-0.597-1.333-1.333v-12h-5.333v12c0 0.736-0.597 1.333-1.333 1.333s-1.333-0.597-1.333-1.333v-13.333z"></path>
</symbol>
<symbol id="icon-Minus" viewBox="0 0 32 32">
<path d="M5.333 16c0-0.736 0.597-1.333 1.333-1.333h18.667c0.736 0 1.333 0.597 1.333 1.333s-0.597 1.333-1.333 1.333h-18.667c-0.736 0-1.333-0.597-1.333-1.333z"></path>
</symbol>
<symbol id="icon-Plus" viewBox="0 0 32 32">
<path d="M17.333 6.667c0-0.736-0.597-1.333-1.333-1.333s-1.333 0.597-1.333 1.333v8h-8c-0.736 0-1.333 0.597-1.333 1.333s0.597 1.333 1.333 1.333h8v8c0 0.736 0.597 1.333 1.333 1.333s1.333-0.597 1.333-1.333v-8h8c0.736 0 1.333-0.597 1.333-1.333s-0.597-1.333-1.333-1.333h-8v-8z"></path>
</symbol>
<symbol id="icon-Search" viewBox="0 0 32 32">
<path d="M5.334 14.667c0 5.155 4.179 9.333 9.333 9.333 2.515 0 4.797-0.994 6.475-2.611 0.035-0.046 0.074-0.090 0.115-0.131s0.086-0.080 0.132-0.115c1.617-1.678 2.611-3.961 2.611-6.475 0-5.155-4.179-9.333-9.333-9.333s-9.333 4.179-9.333 9.333zM22.157 24.043c-2.053 1.642-4.657 2.624-7.49 2.624-6.627 0-12-5.372-12-12s5.373-12 12-12 12 5.373 12 12c0 2.833-0.982 5.437-2.624 7.49l4.9 4.9c0.521 0.521 0.521 1.365 0 1.886s-1.365 0.521-1.886 0l-4.9-4.9z"></path>
</symbol>
<symbol id="icon-Close" viewBox="0 0 32 32">
<path d="M24.943 8.943c0.521-0.521 0.521-1.365 0-1.886s-1.365-0.521-1.886 0l-7.057 7.057-7.057-7.057c-0.521-0.521-1.365-0.521-1.886 0s-0.521 1.365 0 1.886l7.057 7.057-7.057 7.057c-0.521 0.521-0.521 1.365 0 1.886s1.365 0.521 1.886 0l7.057-7.057 7.057 7.057c0.521 0.521 1.365 0.521 1.886 0s0.521-1.365 0-1.886l-7.057-7.057 7.057-7.057z"></path>
</symbol>
<symbol id="icon-ArrowUp" viewBox="0 0 32 32">
<path d="M7.058 20.943c-0.521-0.521-0.521-1.365 0-1.886l8-8c0.521-0.521 1.365-0.521 1.886 0l8 8c0.521 0.521 0.521 1.365 0 1.886s-1.365 0.521-1.886 0l-7.057-7.057-7.057 7.057c-0.521 0.521-1.365 0.521-1.886 0z"></path>
</symbol>
<symbol id="icon-ArrowRight" viewBox="0 0 32 32">
<path d="M11.058 7.057c0.521-0.521 1.365-0.521 1.886 0l8 8c0.521 0.521 0.521 1.365 0 1.886l-8 8c-0.521 0.521-1.365 0.521-1.886 0s-0.521-1.365 0-1.886l7.057-7.057-7.057-7.057c-0.521-0.521-0.521-1.365 0-1.886z"></path>
</symbol>
<symbol id="icon-ArrowLeft" viewBox="0 0 32 32">
<path d="M20.943 7.057c-0.521-0.521-1.365-0.521-1.886 0l-8 8c-0.521 0.521-0.521 1.365 0 1.886l8 8c0.521 0.521 1.365 0.521 1.886 0s0.521-1.365 0-1.886l-7.057-7.057 7.057-7.057c0.521-0.521 0.521-1.365 0-1.886z"></path>
</symbol>
<symbol id="icon-ArrowDown" viewBox="0 0 32 32">
<path d="M24.943 11.057c0.521 0.521 0.521 1.365 0 1.886l-8 8c-0.521 0.521-1.365 0.521-1.886 0l-8-8c-0.521-0.521-0.521-1.365 0-1.886s1.365-0.521 1.886 0l7.057 7.057 7.057-7.057c0.521-0.521 1.365-0.521 1.886 0z"></path>
</symbol>
<symbol id="icon-Logo" viewBox="0 0 53 32">
<path d="M3.959 20.129v-10.456h-3.959v13.968h8.988v-3.512h-5.029z"></path>
<path d="M15.769 24c4.545 0 7.776-3.053 7.776-7.323 0-4.29-3.232-7.343-7.776-7.343s-7.776 3.073-7.776 7.343c0 4.25 3.232 7.323 7.776 7.323zM15.769 20.428c-2.141 0-3.737-1.596-3.737-3.751 0-2.175 1.596-3.771 3.737-3.771 2.161 0 3.717 1.576 3.717 3.771 0 2.175-1.555 3.751-3.717 3.751z"></path>
<path d="M30.414 16.178v2.435h3.515c-0.444 1.077-1.717 1.796-3.212 1.796-2.141 0-3.535-1.517-3.535-3.731 0-2.235 1.414-3.752 3.535-3.752 1.434 0 2.707 0.758 3.212 1.936h4.1c-0.606-3.233-3.636-5.527-7.352-5.527-4.343 0-7.493 3.093-7.493 7.343s3.211 7.323 7.534 7.323c4.423 0 7.453-3.253 7.453-7.822h-7.756z"></path>
<path d="M45.557 24c4.545 0 7.776-3.053 7.776-7.323 0-4.29-3.232-7.343-7.776-7.343s-7.776 3.073-7.776 7.343c0 4.25 3.232 7.323 7.776 7.323zM45.557 20.428c-2.141 0-3.737-1.596-3.737-3.751 0-2.175 1.596-3.771 3.737-3.771 2.161 0 3.717 1.576 3.717 3.771 0 2.175-1.555 3.751-3.717 3.751z"></path>
</symbol>
<symbol id="icon-user" viewBox="0 0 32 32">
<path d="M18 22.082v-1.649c2.203-1.241 4-4.337 4-7.432 0-4.971 0-9-6-9s-6 4.029-6 9c0 3.096 1.797 6.191 4 7.432v1.649c-6.784 0.555-12 3.888-12 7.918h28c0-4.030-5.216-7.364-12-7.918z"></path>
</symbol>
</defs>
</svg>
